<svg preserveAspectRatio="none" width="100%" height="100%" overflow="visible" style="display: block;" viewBox="0 0 25.9917 25.9917" fill="none" xmlns="http://www.w3.org/2000/svg">
<g id="icon_instagram">
<path id="Vector" d="M12.9958 2.34392C16.4658 2.34392 16.8746 2.3606 18.2509 2.41899C19.5188 2.47738 20.2111 2.68592 20.6615 2.86943C21.2705 3.10298 21.7042 3.38659 22.1546 3.84536C22.6134 4.30414 22.8887 4.72955 23.1306 5.33847C23.3057 5.79724 23.5226 6.48123 23.581 7.74912C23.6394 9.1171 23.6561 9.53417 23.6561 13.0042C23.6561 16.4742 23.6394 16.8829 23.581 18.2592C23.5226 19.5271 23.3141 20.2194 23.1306 20.6699C22.897 21.2788 22.6134 21.7125 22.1546 22.163C21.6959 22.6134 21.2705 22.897 20.6615 23.1389C20.2028 23.3141 19.5188 23.531 18.2509 23.5894C16.8829 23.6477 16.4658 23.6644 12.9958 23.6644C9.52582 23.6644 9.10876 23.6477 7.74078 23.5894C6.47289 23.531 5.78056 23.3224 5.33012 23.1389C4.72121 22.9054 4.28745 22.6218 3.83702 22.163C3.37825 21.7042 3.10298 21.2788 2.86108 20.6699C2.68591 20.2111 2.46904 19.5271 2.41065 18.2592C2.35226 16.8912 2.33558 16.4742 2.33558 13.0042C2.33558 9.53417 2.35226 9.12544 2.41065 7.74912C2.46904 6.48123 2.67757 5.7889 2.86108 5.33847C3.09464 4.72955 3.37825 4.2958 3.83702 3.84536C4.2958 3.39493 4.72121 3.11132 5.33012 2.86942C5.7889 2.69426 6.47289 2.47738 7.74078 2.41899C9.10876 2.3606 9.52583 2.34392 12.9958 2.34392ZM12.9958 0C9.46744 0 9.02534 0.0166827 7.63234 0.0750722C6.24767 0.141803 5.3051 0.358678 4.47931 0.67565C3.62849 1.0093 2.90279 1.4514 2.17709 2.17709C1.4514 2.90279 1.0093 3.62849 0.67565 4.47931C0.350337 5.3051 0.133462 6.24767 0.0750723 7.63234C0.00834135 9.017 0 9.4591 0 12.9958C0 16.5326 0.0166827 16.9663 0.0750722 18.3593C0.141803 19.744 0.358678 20.6866 0.67565 21.5124C1.0093 22.3632 1.4514 23.0889 2.17709 23.8146C2.90279 24.5403 3.62849 24.9824 4.47931 25.316C5.3051 25.6413 6.24767 25.8582 7.63234 25.9166C9.017 25.9833 9.4591 25.9917 12.9958 25.9917C16.5326 25.9917 16.9663 25.975 18.3593 25.9166C19.744 25.8499 20.6866 25.633 21.5124 25.316C22.3632 24.9824 23.0889 24.5403 23.8146 23.8146C24.5403 23.0889 24.9824 22.3632 25.316 21.5124C25.6413 20.6866 25.8582 19.744 25.9166 18.3593C25.9833 16.9747 25.9917 16.5326 25.9917 12.9958C25.9917 9.4591 25.975 9.02534 25.9166 7.63234C25.8499 6.24767 25.633 5.3051 25.316 4.47931C24.9824 3.62849 24.5403 2.90279 23.8146 2.17709C23.0889 1.4514 22.3632 1.0093 21.5124 0.67565C20.6866 0.350337 19.744 0.133462 18.3593 0.0750721C16.9747 0.00834127 16.5326 0 12.9958 0Z" fill="var(--fill-0, black)"/>
<path id="Vector_2" d="M12.9958 6.32275C9.30896 6.32275 6.32275 9.30896 6.32275 12.9958C6.32275 16.6827 9.30896 19.6689 12.9958 19.6689C16.6827 19.6689 19.6689 16.6827 19.6689 12.9958C19.6689 9.30896 16.6827 6.32275 12.9958 6.32275ZM12.9958 17.3333C10.6019 17.3333 8.65833 15.3898 8.65833 12.9958C8.65833 10.6019 10.6019 8.65833 12.9958 8.65833C15.3898 8.65833 17.3333 10.6019 17.3333 12.9958C17.3333 15.3898 15.3898 17.3333 12.9958 17.3333Z" fill="var(--fill-0, black)"/>
<path id="Vector_3" d="M19.9358 7.62406C20.7973 7.62406 21.4956 6.9257 21.4956 6.06423C21.4956 5.20276 20.7973 4.50439 19.9358 4.50439C19.0743 4.50439 18.376 5.20276 18.376 6.06423C18.376 6.9257 19.0743 7.62406 19.9358 7.62406Z" fill="var(--fill-0, black)"/>
</g>
</svg>
